<svg xmlns="http://www.w3.org/2000/svg" viewBox="0 0 796 796"><defs><style>.cls-1{fill:none;}</style></defs><title>tenantlogo</title><g id="Layer_2" data-name="Layer 2"><rect class="cls-1" width="796" height="796"/></g><g id="Layer_1" data-name="Layer 1"><path d="M397.26,729.19h-247c-7.39,0-7.39,0-7.39-7.13q0-189.5-.09-379a15.14,15.14,0,0,1,4.52-11.38q47.35-50.09,94.43-100.44Q295.28,174.31,349,117.49c15.19-16.12,30.43-32.18,45.47-48.44,2.88-3.11,4.28-3,7.22.1q78.75,84,157.76,167.68,44.68,47.46,89.35,94.93c2.52,2.67,4.5,5.17,3.26,9.12-.38,1.21-.06,2.65-.06,4q0,188,0,376c0,9.68.87,8.31-8.19,8.31Q520.5,729.23,397.26,729.19ZM514.09,398.77a7.7,7.7,0,0,1,4.26,2.66c5.53,5.54,11.24,10.92,16.47,16.73,3.36,3.74,6.13,4.37,10.59,1.54,8.28-5.26,17-9.83,25.55-14.66,4.91-2.77,5-3,1.22-7q-43.36-46.31-86.76-92.58c-4.49-4.78-8.52-10.07-14.84-15,0,3.69,0,6.27,0,8.84q0,98.75,0,197.49c0,6-.16,12-2.39,17.73-.81,2.07-1.85,4.13-4.41,4.19-2.8.07-4-2.07-4.84-4.33-2.11-5.39-2.34-11-2.34-16.72q0-109.5.08-219a9.15,9.15,0,0,0-2.88-7c-12.75-12.92-25.36-26-38.11-38.89-1.16-1.17-2.12-3.72-4.17-2.71-1.47.72-.72,3-.73,4.63q-.5,141.24-.93,282.48c-.07,26.23,12.57,42.42,37.94,49.27,27,7.29,67.64-6.58,66.49-50.5-.94-35.81-.19-71.66-.19-107.49C514.09,405.28,514.09,402.19,514.09,398.77Zm-157.35-131-1.32-.52c0-3.47-.23-7,.06-10.41.35-4.23-1.4-5.4-5.46-5.35-15.33.19-30.66.21-46,0-4.46-.07-5.62,1.44-5.58,5.75.2,20.5-.41,41,.3,61.48.32,9.24-2.38,15.86-8.75,22.45-17.13,17.71-33.57,36.08-50.27,54.19-1.55,1.68-3.56,3.12-.67,5.63q15.08,13.1,29.88,26.52c2.14,1.94,3.43,1.6,5.22-.45q7.23-8.28,14.81-16.24c2.88-3,5.33-6.56,9-9.06,1.09,2,.61,3.64.61,5.24q.06,77.49.06,155c0,10.1-1,8.26,8.58,8.37,13.16.14,26.33,0,39.49,0,7.89,0,7.93,0,7.9-7.74q-.33-107.73-.78-215.46a14.89,14.89,0,0,1,4.5-11.5C369.81,323.94,381,311.87,392.44,300a8.35,8.35,0,0,0,2.75-6.12c-.1-22-.09-44-.17-66,0-1.19.56-2.73-1.53-3.66ZM188.43,647h0c0,5.66-.06,11.33,0,17,.13,11.17-1.75,9.27,9.88,9.65,3.59.11,4.18-1.47,4.12-4.42-.09-5,0-10,.06-15,0-1.17.14-2.54,1.71-2.55S206,653,206,654.14c.07,3.5,0,7,.1,10.49.17,10.19-1.62,8.61,9,9,4.07.14,5-1.35,5-5.17-.21-12.82,0-25.65-.13-38.47-.13-10.42,2.34-9.3-10.13-9.44-2.79,0-3.9,1-3.83,3.77.11,4.16,0,8.33-.06,12.49,0,1.14-.13,2.54-1.75,2.5s-1.66-1.42-1.71-2.56c-.1-2.33-.06-4.66-.11-7-.23-10.37,1.83-8.89-9.33-9.26-3.93-.13-4.81,1.51-4.73,5C188.55,632.63,188.43,639.79,188.43,647Zm356.15-26.37h-7.5c-1.94,0-3,.75-3.3,2.86q-2.88,22.78-5.93,45.55c-.46,3.44.59,5,4.22,4.55a15.58,15.58,0,0,1,4,0c4,.52,6.43-.42,6.14-5.14-.11-1.85-.08-4.37,3-4.14,2.67.2,2.49,2.53,2.38,4.19-.28,4.27,1.63,5.66,5.62,5.09a14.31,14.31,0,0,1,4,0c4.3.61,5-1.36,4.41-5.17-2.08-12.81-4-25.65-5.86-38.48C554.33,620.51,554.37,620.5,544.58,620.58ZM256.8,646h0c0,5-.12,10,0,15,.28,9.58,4.65,13.57,14.62,13.54,8.4,0,12.78-4.46,12.93-13.59.16-9.65-.25-19.31.1-28.95.21-5.66-3.42-4.4-6.55-4.56-3.31-.17-6.13-.41-5.92,4.6.38,9,.19,18,.05,27,0,2.32,1,6.62-1.32,6.5-3-.16-1.56-4.34-1.62-6.72-.2-8.15-.07-16.3-.08-24.46,0-6.92,0-6.92-7.09-6.87a8,8,0,0,1-1,0c-3.11-.38-4.47.68-4.25,4.11C257,636.29,256.8,641.13,256.8,646Zm233.63,17.77h.07c0-2.66,0-5.32,0-8,0-.93,0-2.17,1.38-2.17s1.61,1.05,1.63,2.08a126.45,126.45,0,0,1,.1,13c-.33,4.07,1.2,4.84,5,5.05,5.05.28,7-1.25,6.23-6.32-.3-1.95,0-4-.06-6-.17-3.41.94-7.19-2.08-9.88-1.69-1.5-1.3-2.05,0-3.75,3.61-4.71,2.59-10.14.77-15.19-1.51-4.2-5.59-4.87-9.49-5.06-4.15-.19-8.31,0-12.47-.12-2.13,0-3.42.47-3.42,3,0,13.3,0,26.61,0,39.91,0,1.54.17,2.79,2.24,3.22,8,1.65,10.15,0,10.09-7.81C490.43,665.06,490.44,664.39,490.44,663.73Zm-144-5.95,1.19,0c1.38,4.42,2.62,8.88,4.16,13.24,1.65,4.67,5.68,1.94,8.61,2.36s2.39-2.12,2.4-3.82c0-12.82-.11-25.65.09-38.47.08-4.91-3.22-3.46-5.76-3.71-2.8-.28-4.79,0-4.51,3.81.33,4.44.08,8.92.08,13.38a84.7,84.7,0,0,1-5.57-14.23c-1.51-4.81-5.47-2.62-8.43-2.89-3.31-.3-2.43,2.57-2.44,4.3-.08,12.66.07,25.31-.08,38,0,3.24,1.23,4.14,4.11,3.78,2.65-.33,6.44,1.41,6.2-3.83C346.27,665.73,346.42,661.75,346.42,657.78Zm-94.05-7.54h0c0-4.49.49-9-.11-13.44-1-7.37-6.34-10.77-15.07-10.35-7.38.35-12,4.5-12.3,11.75-.31,8.14-.31,16.31,0,24.45.28,7.36,5.17,11.61,12.75,11.84,8.74.26,13.8-3.23,14.67-10.79C252.79,659.26,252.37,654.72,252.37,650.23Zm194.41.33h0c0,4.16-.26,8.33.06,12.47.57,7.33,5.3,11.28,13.14,11.4,8.62.13,13.27-3.23,14.15-10.66a113.09,113.09,0,0,0,0-26.85c-.91-7.5-6.09-10.86-14.87-10.44-7.3.35-12,4.58-12.45,11.62C446.56,642.24,446.78,646.41,446.78,650.56Zm-79.92-.25h0c0,4.49-.32,9,.07,13.48.77,8.81,8.94,13.15,16.68,9a2.79,2.79,0,0,1,3.26,0c5.25,2.59,7.86.7,7.88-5.18,0-3.16.06-6.33,0-9.49-.25-10.12,2.23-9.34-9.73-9.32-4.45,0-6.39,3.13-3.72,6.71,2,2.73,1.17,5.32,1.29,8,.05,1.17-.26,2.47-1.82,2.48s-1.78-1.31-1.81-2.48c-.07-3.49-.05-7-.06-10.49,0-5.16,0-10.32,0-15.48,0-1.18.18-2.54,1.63-2.7,1.68-.19,1.62,1.34,1.79,2.42a12,12,0,0,1,.12,3c-.33,3.21,1,4.6,4.26,4.28,1.82-.18,3.66,0,5.49-.08a2.27,2.27,0,0,0,2.51-1.85c1.81-6.66-3-14.32-10.21-15.94-8.71-2-16.78,2.55-17.5,10.15C366.5,641.29,366.85,645.82,366.85,650.31ZM301.4,626.45c-9.45-.08-13.43,4-13.22,13.35.12,5.43,2.23,9.42,7,12.35,3.28,2,7.41,3.51,8.32,8.06.35,1.78.72,3.66-.56,5.26a1.59,1.59,0,0,1-2.23.44c-1.56-1.21-.79-3.05-1-4.63a8.07,8.07,0,0,1,0-1.5c.13-2.17-1.09-3.21-3-2.9-2.71.43-6.41-1.77-8,1.82-2.23,5.19,1.13,12.48,6.44,14.59a18.36,18.36,0,0,0,14.55-.37,8.56,8.56,0,0,0,5.45-7.6c1-8.74-.93-15.84-9.57-19.88a21.18,21.18,0,0,1-4.08-2.83c-2.14-1.71-2-4-1.43-6.38a1.94,1.94,0,0,1,1.32-1.22c.43,0,1.34.75,1.31,1.12-.46,6.92,4.49,5.22,8.37,5.42,2.78.15,3.32-1.21,3.31-3.62C314.33,630.15,310.3,626.53,301.4,626.45Zm119,20.5c0,5.66-.1,11.32,0,17,.25,11.14-2.2,9.38,10.37,9.61,2.58,0,3.62-1,3.59-3.49-.06-4.66.13-9.33-.05-14-.13-3.28.75-5.2,4.4-4.68,4,.58,4.19-1.95,4.1-4.89s.49-6-4.07-5.43c-3.62.45-4.41-1.44-4.47-4.74-.08-3.91,1.19-5.61,5.18-4.92,4.31.74,4.43-2,4.33-5.14s.64-6.15-4.3-5.8a123.72,123.72,0,0,1-14.48,0c-3.41-.16-4.78.94-4.68,4.5C420.57,632.3,420.42,639.63,420.43,647Zm143.68,3.71c0,6.31.1,12.63,0,18.94-.07,3,1,4.14,4,4,3.81-.23,7.64-.11,11.46,0,2.39.05,4.45-.11,4.06-3.32-.3-2.5,1.37-6.29-3.41-6.09-3.26.14-3.85-1.4-3.81-4.22.12-9.3-.15-18.62.15-27.91.12-3.87-1.18-5.12-4.8-4.64a13,13,0,0,1-3.48,0c-3.46-.48-4.27,1.28-4.2,4.33C564.21,638,564.12,644.35,564.11,650.66Zm22-.2h0c0,6.32.08,12.64,0,19-.05,2.83.67,4.33,3.9,4.15,4-.22,8-.14,12,0,2.77.1,4.06-.93,3.77-3.76-.25-2.42,1.1-5.85-3.39-5.63-3.6.18-3.94-1.92-3.9-4.77.11-8.15,0-16.3,0-24.45,0-7.87,0-7.7-7.92-7.67-3.55,0-4.58,1.3-4.47,4.69C586.23,638.15,586.08,644.31,586.08,650.46Zm-267,0c0,6.15.28,12.32-.08,18.46-.32,5.52,3.21,4.57,6.48,4.62s6.14.42,6-4.62c-.33-11.3-.11-22.62-.11-33.93,0-7.81,0-7.62-7.85-7.69-3.65,0-4.57,1.41-4.49,4.7C319.2,638.16,319.09,644.31,319.1,650.46Z"/><path d="M545.29,639c.42,4.34.87,8.68,1.26,13,.11,1.24-.13,2.33-1.73,2.4s-2.14-.77-2-2.12c.41-4.46.89-8.91,1.34-13.36Z"/><path d="M490.32,640.68c.65-1.66-1-4.43,1.65-4.55,2-.09,1.74,2.44,1.69,4-.06,1.85.58,4.73-2.17,4.6C489.56,644.68,491,642,490.32,640.68Z"/><path d="M236.83,650.71c0-4.14,0-8.27,0-12.41,0-1.43-.08-3.4,1.92-3.38,1.65,0,1.64,1.85,1.65,3.12,0,8.27.05,16.54-.06,24.81,0,1.16.13,3.09-1.64,3.13-2.13,0-1.87-2-1.9-3.36-.09-4,0-7.94,0-11.91Z"/><path d="M458.85,650.15c0-4.14,0-8.28,0-12.42,0-1.3.08-3,1.9-2.88,1.49.06,1.52,1.64,1.52,2.71q.1,12.91,0,25.82c0,1.05-.05,2.62-1.63,2.62-1.89,0-1.79-1.7-1.81-2.94C458.8,658.76,458.85,654.45,458.85,650.15Z"/></g></svg>