<svg xmlns="http://www.w3.org/2000/svg" xmlns:xlink="http://www.w3.org/1999/xlink" viewBox="0 0 402 103.25"><defs><clipPath id="clip-path" transform="translate(0 0)"><rect width="402" height="103.25" style="fill:none"/></clipPath></defs><g id="Layer_2" data-name="Layer 2"><g id="Layer_1-2" data-name="Layer 1"><polygon points="44.1 0 31.57 12.53 31.57 9.19 17.37 9.19 17.37 29.23 0 47.94 8.46 56.98 17.37 47.77 17.37 99.06 31.57 99.06 31.57 32.07 44.1 19.38 44.1 0" style="fill:#ea2b29"/><g style="clip-path:url(#clip-path)"><path d="M49.11,0V78.52c0,5.75,4.86,20.53,11,20.53h7.55c6,0,10.12-11.43,10.12-19.9V49.53L86,57.22,94.3,49,66.35,19.18V78.47c0,2.5-.2,4.84-2.66,4.84-1.82,0-2.33-3.65-2.33-4.74V13.46Z" transform="translate(0 0)" style="fill:#ea2b29"/></g><polygon points="140.42 23.02 135.14 23.02 135.14 65.66 128.07 65.66 128.07 23.02 122.73 23.02 122.73 17.13 140.42 17.13 140.42 23.02" style="fill:#ea2b29"/><polygon points="157.68 65.66 143.8 65.66 143.8 17.13 157.62 17.13 157.62 22.96 150.86 22.96 150.86 30.03 157.44 30.03 157.44 35.62 150.86 35.62 150.86 59.58 157.68 59.58 157.68 65.66" style="fill:#ea2b29"/><polygon points="175.44 65.66 168.13 35.37 167.88 35.37 167.88 65.66 161.8 65.66 161.8 17.13 169.6 17.13 176.6 48.27 176.85 48.27 176.85 17.13 182.99 17.13 182.99 65.66 175.44 65.66" style="fill:#ea2b29"/><g style="clip-path:url(#clip-path)"><path d="M197.8,22.84a6.23,6.23,0,0,0-1.51.15,1.8,1.8,0,0,0-.92.56,2.17,2.17,0,0,0-.43,1.16,18,18,0,0,0-.09,2V49.07h6V26.71a13.53,13.53,0,0,0-.12-2,2.68,2.68,0,0,0-.43-1.16,1.67,1.67,0,0,0-.93-.56,6.58,6.58,0,0,0-1.53-.15m3,42.82V54.85h-6V65.66H188V26.71a28.33,28.33,0,0,1,.4-5.34,5.8,5.8,0,0,1,1.5-3.11,5.66,5.66,0,0,1,3-1.41,28.65,28.65,0,0,1,4.83-.34,29.22,29.22,0,0,1,5.06.37,6.09,6.09,0,0,1,3.14,1.45,5.68,5.68,0,0,1,1.56,3.07,26,26,0,0,1,.43,5.31V65.66Z" transform="translate(0 0)" style="fill:#ea2b29"/></g><polygon points="226.49 65.66 219.18 35.37 218.93 35.37 218.93 65.66 212.85 65.66 212.85 17.13 220.65 17.13 227.65 48.27 227.9 48.27 227.9 17.13 234.04 17.13 234.04 65.66 226.49 65.66" style="fill:#ea2b29"/><polygon points="255.12 23.02 249.83 23.02 249.83 65.66 242.77 65.66 242.77 23.02 237.42 23.02 237.42 17.13 255.12 17.13 255.12 23.02" style="fill:#ea2b29"/><g style="clip-path:url(#clip-path)"><path d="M270.23,32.86v-6a16.64,16.64,0,0,0-.1-2.08,2.42,2.42,0,0,0-.39-1.2,1.67,1.67,0,0,0-.93-.56,8.71,8.71,0,0,0-3.22,0,1.6,1.6,0,0,0-.89.56,2.32,2.32,0,0,0-.4,1.2,19.21,19.21,0,0,0-.09,2.08v4.8a5.92,5.92,0,0,0,.3,2.18,3.67,3.67,0,0,0,1.54,1.44,29.88,29.88,0,0,0,2.8,1.54c1.16.57,2.44,1.29,3.84,2.15a23.72,23.72,0,0,1,2.48,1.78,5.1,5.1,0,0,1,1.41,1.78,7.42,7.42,0,0,1,.62,2.33,31.68,31.68,0,0,1,.15,3.38V56a29.76,29.76,0,0,1-.39,5.4,5.74,5.74,0,0,1-1.51,3.1,5.68,5.68,0,0,1-3.07,1.42,31.74,31.74,0,0,1-5.1.34,29.66,29.66,0,0,1-4.92-.34,5.82,5.82,0,0,1-3-1.38,5.75,5.75,0,0,1-1.53-3.08,27.19,27.19,0,0,1-.43-5.46V46.37h6.88V56a18.36,18.36,0,0,0,.09,2,2.46,2.46,0,0,0,.4,1.2,1.54,1.54,0,0,0,.89.59,6.54,6.54,0,0,0,1.57.15c1.31,0,2.14-.25,2.48-.74a6.41,6.41,0,0,0,.53-3.25V48.71a11.59,11.59,0,0,0-.25-2.83,3.22,3.22,0,0,0-1.41-1.66c-.41-.28-.92-.6-1.54-.95l-2-1.11L263,41c-.72-.4-1.36-.79-1.94-1.16A14.65,14.65,0,0,1,259,38.17a5.38,5.38,0,0,1-1.16-1.69,7.19,7.19,0,0,1-.53-2.09c-.08-.78-.12-1.74-.12-2.89V26.83a28.74,28.74,0,0,1,.4-5.4A6.11,6.11,0,0,1,259,18.3a5.41,5.41,0,0,1,3-1.45,38,38,0,0,1,10.14,0,5.5,5.5,0,0,1,3,1.45,5.91,5.91,0,0,1,1.51,3.13,29.62,29.62,0,0,1,.4,5.4v6Z" transform="translate(0 0)" style="fill:#ea2b29"/><path d="M302.17,66.28a30.56,30.56,0,0,1-5-.34,5.68,5.68,0,0,1-3.05-1.42,6,6,0,0,1-1.53-3.1,26.8,26.8,0,0,1-.43-5.4V17.13h7.06V56a12.39,12.39,0,0,0,.13,2,2.49,2.49,0,0,0,.43,1.17,1.55,1.55,0,0,0,.92.55,7.44,7.44,0,0,0,3.07,0,1.55,1.55,0,0,0,.92-.55,2.49,2.49,0,0,0,.43-1.17,13.81,13.81,0,0,0,.12-2V17.13h6.89V56a27.56,27.56,0,0,1-.43,5.4,5.9,5.9,0,0,1-1.54,3.1,5.65,5.65,0,0,1-3,1.42,30.23,30.23,0,0,1-4.95.34" transform="translate(0 0)" style="fill:#ea2b29"/></g><polygon points="330.8 65.66 323.49 35.37 323.25 35.37 323.25 65.66 317.16 65.66 317.16 17.13 324.96 17.13 331.97 48.27 332.21 48.27 332.21 17.13 338.36 17.13 338.36 65.66 330.8 65.66" style="fill:#ea2b29"/><rect x="343.82" y="17.13" width="7.07" height="48.53" style="fill:#ea2b29"/><g style="clip-path:url(#clip-path)"><path d="M368.89,26.71a18,18,0,0,0-.09-2,2.26,2.26,0,0,0-.43-1.16,1.83,1.83,0,0,0-.93-.56,6.2,6.2,0,0,0-1.5-.15c-1.31,0-2.15.25-2.52.74a5.81,5.81,0,0,0-.55,3.13V56a18.36,18.36,0,0,0,.09,2,2.27,2.27,0,0,0,.43,1.2,1.68,1.68,0,0,0,.92.59,6.23,6.23,0,0,0,1.51.15,6.91,6.91,0,0,0,1.59-.15,1.69,1.69,0,0,0,1-.62A2.75,2.75,0,0,0,368.8,58a17.66,17.66,0,0,0,.09-2ZM376,56a28.74,28.74,0,0,1-.4,5.4,5.55,5.55,0,0,1-1.53,3.1,5.85,5.85,0,0,1-3.1,1.42,38.42,38.42,0,0,1-10.2,0,5.64,5.64,0,0,1-3.07-1.42,5.74,5.74,0,0,1-1.51-3.1,28.74,28.74,0,0,1-.4-5.4V26.71a28.25,28.25,0,0,1,.4-5.37,5.78,5.78,0,0,1,1.51-3.08,5.71,5.71,0,0,1,3.07-1.41,38.42,38.42,0,0,1,10.2,0,5.92,5.92,0,0,1,3.1,1.41,5.59,5.59,0,0,1,1.53,3.08,28.25,28.25,0,0,1,.4,5.37Z" transform="translate(0 0)" style="fill:#ea2b29"/></g><polygon points="395.86 17.13 395.86 48.27 395.61 48.27 388.61 17.13 380.81 17.13 380.81 65.66 386.89 65.66 386.89 35.37 387.13 35.37 394.44 65.66 402 65.66 402 17.13 395.86 17.13" style="fill:#ea2b29"/><g style="clip-path:url(#clip-path)"><path d="M128.6,84.74a1,1,0,0,0-1.24-1.25,1.72,1.72,0,0,0-1.11.24,1.43,1.43,0,0,0-.26,1v10.2a1.56,1.56,0,0,0,.24,1,1.59,1.59,0,0,0,1.07.25q.86,0,1.08-.27a1.63,1.63,0,0,0,.22-1Zm2.94,10.5a8.82,8.82,0,0,1-.18,2,2.13,2.13,0,0,1-.64,1.14,2.47,2.47,0,0,1-1.29.52,15.33,15.33,0,0,1-2.13.12,15.59,15.59,0,0,1-2.14-.12,2.58,2.58,0,0,1-1.3-.52,2,2,0,0,1-.64-1.14,9.65,9.65,0,0,1-.16-2V84.41a9.48,9.48,0,0,1,.16-2,2,2,0,0,1,.64-1.15,2.49,2.49,0,0,1,1.3-.51,15.59,15.59,0,0,1,2.14-.12,15.33,15.33,0,0,1,2.13.12,2.39,2.39,0,0,1,1.29.51,2.12,2.12,0,0,1,.64,1.15,8.66,8.66,0,0,1,.18,2Z" transform="translate(0 0)" style="fill:#ea2b29"/><path d="M139.37,83.41h-2.25v15.3h-3V83.41H133V80.94h1.1V79.05a3.76,3.76,0,0,1,1-2.87,4.87,4.87,0,0,1,3.32-.9h1v2.25h-.74c-1,0-1.48.56-1.48,1.66v1.75h2.25Z" transform="translate(0 0)" style="fill:#ea2b29"/></g><polygon points="148.45 75.28 149.42 93.7 149.54 93.7 151.12 75.28 155.47 75.28 156.81 93.7 156.93 93.7 158.2 75.28 161.64 75.28 158.91 98.71 154.58 98.71 153.34 80.11 153.22 80.11 151.59 98.71 147.2 98.71 145.03 75.28 148.45 75.28" style="fill:#ea2b29"/><g style="clip-path:url(#clip-path)"><path d="M166.45,96.51a7.41,7.41,0,0,0,1.09-.05V90.64a1.18,1.18,0,0,0-.5-.15,6.13,6.13,0,0,0-.62,0,4,4,0,0,0-.79.06.73.73,0,0,0-.43.24.8.8,0,0,0-.17.49,5.82,5.82,0,0,0,0,.79v2.78a6.9,6.9,0,0,0,0,.89.84.84,0,0,0,.17.51.76.76,0,0,0,.45.24,5.35,5.35,0,0,0,.8.05m-.18,2.5a15.71,15.71,0,0,1-2-.11,2.39,2.39,0,0,1-1.23-.46,1.77,1.77,0,0,1-.61-1,8.08,8.08,0,0,1-.16-1.83v-4.3a3.74,3.74,0,0,1,.6-2.35,2.61,2.61,0,0,1,2.1-.74h.56a10.93,10.93,0,0,1,1.42.07,1.87,1.87,0,0,1,.62.2V84.77a2.21,2.21,0,0,0-.23-1.25,1.32,1.32,0,0,0-1-.29c-.57,0-.93.1-1.08.31a2.29,2.29,0,0,0-.23,1.23v1.75h-2.75V84.41a9.82,9.82,0,0,1,.16-2,2,2,0,0,1,.61-1.14,2.32,2.32,0,0,1,1.21-.5,13.74,13.74,0,0,1,2-.12,15.59,15.59,0,0,1,2.14.12,2.46,2.46,0,0,1,1.29.52,2.11,2.11,0,0,1,.63,1.14,8.66,8.66,0,0,1,.18,2v14.3a8.88,8.88,0,0,1-1.64.22c-.75,0-1.6.08-2.57.08" transform="translate(0 0)" style="fill:#ea2b29"/><path d="M178,86.07V84.74a1.61,1.61,0,0,0-.22-1,1.52,1.52,0,0,0-1.08-.26c-.57,0-.93.09-1.07.26a1.69,1.69,0,0,0-.21,1v1.42a2.85,2.85,0,0,0,.06.66,1.23,1.23,0,0,0,.21.43,1.56,1.56,0,0,0,.45.35,7.14,7.14,0,0,0,.8.37,2.54,2.54,0,0,0,.37.18l.62.28c.23.11.46.22.68.31a5.7,5.7,0,0,1,.55.27,6.83,6.83,0,0,1,1,.62,2,2,0,0,1,.53.64,2.38,2.38,0,0,1,.24.74,6.22,6.22,0,0,1,.06.91v3.29a9.75,9.75,0,0,1-.16,2,2.13,2.13,0,0,1-.62,1.16,2.54,2.54,0,0,1-1.28.52,19.14,19.14,0,0,1-4.28,0,2.62,2.62,0,0,1-1.31-.52,2.1,2.1,0,0,1-.65-1.16,8.92,8.92,0,0,1-.18-2V92.48h3v2.4a1,1,0,0,0,1.31,1.31c.57,0,.93-.09,1.07-.27a1.81,1.81,0,0,0,.2-1V92.72a3.39,3.39,0,0,0,0-.6,1,1,0,0,0-.18-.41,1.54,1.54,0,0,0-.37-.34,3.8,3.8,0,0,0-.65-.34l-.65-.3-.58-.22-.58-.24a6.94,6.94,0,0,1-.65-.34,5.9,5.9,0,0,1-.92-.59,2.39,2.39,0,0,1-.57-.67,2.72,2.72,0,0,1-.28-.86,8.24,8.24,0,0,1-.07-1.2V84.44a9,9,0,0,1,.18-2,2.15,2.15,0,0,1,.64-1.16,2.39,2.39,0,0,1,1.28-.51,15.87,15.87,0,0,1,2.17-.12,15.59,15.59,0,0,1,2.14.12,2.45,2.45,0,0,1,1.29.51,2.13,2.13,0,0,1,.62,1.16,9.82,9.82,0,0,1,.16,2v1.63Z" transform="translate(0 0)" style="fill:#ea2b29"/><path d="M186.32,98.71h-3V75.28h3v6.79a2.16,2.16,0,0,1,1-1,4.29,4.29,0,0,1,1.75-.29,2.91,2.91,0,0,1,2.34.78,4.54,4.54,0,0,1,.65,2.83v14.3h-3v-14a1.44,1.44,0,0,0-.25-.95,1.27,1.27,0,0,0-.94-.27,1.63,1.63,0,0,0-1,.26,1.83,1.83,0,0,0-.47.66Z" transform="translate(0 0)" style="fill:#ea2b29"/></g><path d="M197.47,98.71h-3V80.94h3Zm0-20.35h-3V75.28h3Z" transform="translate(0 0)" style="fill:#ea2b29"/><g style="clip-path:url(#clip-path)"><path d="M203.13,98.71h-3V80.94h2.82v1.19a2.24,2.24,0,0,1,1-1,4.29,4.29,0,0,1,1.89-.32,4.9,4.9,0,0,1,1.44.17,2,2,0,0,1,.94.61,2.68,2.68,0,0,1,.5,1.13,8.18,8.18,0,0,1,.15,1.7v14.3h-3v-14a1.39,1.39,0,0,0-.25-.95,1.26,1.26,0,0,0-.93-.27,1.61,1.61,0,0,0-1,.26,1.74,1.74,0,0,0-.48.66Z" transform="translate(0 0)" style="fill:#ea2b29"/><path d="M216.6,84.44a1.74,1.74,0,0,0-.55-.71,1.62,1.62,0,0,0-.9-.21,1.06,1.06,0,0,0-.91.32A2.11,2.11,0,0,0,214,85v8.75a2.16,2.16,0,0,0,.22,1.17,1.06,1.06,0,0,0,.91.31,1.62,1.62,0,0,0,.9-.21,1.67,1.67,0,0,0,.55-.71Zm-1.87,16.26a2.16,2.16,0,0,0,1.39-.34,1.78,1.78,0,0,0,.39-1.35V96.72a2.37,2.37,0,0,1-.95.91,3.88,3.88,0,0,1-1.72.31,4.39,4.39,0,0,1-1.39-.19,1.75,1.75,0,0,1-.85-.63,2.6,2.6,0,0,1-.41-1.12,11.52,11.52,0,0,1-.11-1.68V84.41a10.17,10.17,0,0,1,.12-1.7,2.65,2.65,0,0,1,.43-1.13,1.71,1.71,0,0,1,.88-.61,4.75,4.75,0,0,1,1.42-.17,4.38,4.38,0,0,1,1.69.29,2.4,2.4,0,0,1,1.13,1.16V80.94h2.82V99a4.69,4.69,0,0,1-.94,3.2,4.13,4.13,0,0,1-3.19,1h-3.88V100.7Z" transform="translate(0 0)" style="fill:#ea2b29"/><path d="M227.34,83.41h-2.08V94.56a1.86,1.86,0,0,0,.3,1.24,1.57,1.57,0,0,0,1.18.33h.57v2.58h-.78a7.9,7.9,0,0,1-2-.22,3.26,3.26,0,0,1-1.34-.68,2.57,2.57,0,0,1-.71-1.18,6,6,0,0,1-.21-1.69V83.41h-1.09V80.94h1.09V75.55h3v5.39h2.08Z" transform="translate(0 0)" style="fill:#ea2b29"/><path d="M234.6,84.74a1.49,1.49,0,0,0-.24-1,1.44,1.44,0,0,0-1-.24,1.75,1.75,0,0,0-1.12.24,1.43,1.43,0,0,0-.25,1v10.2a1.56,1.56,0,0,0,.24,1,1.59,1.59,0,0,0,1.07.25q.85,0,1.08-.27a1.63,1.63,0,0,0,.22-1Zm2.94,10.5a8.82,8.82,0,0,1-.18,2,2.13,2.13,0,0,1-.64,1.14,2.51,2.51,0,0,1-1.29.52,19.05,19.05,0,0,1-4.27,0,2.58,2.58,0,0,1-1.3-.52,2,2,0,0,1-.64-1.14,9.54,9.54,0,0,1-.17-2V84.41a9.37,9.37,0,0,1,.17-2,2,2,0,0,1,.64-1.15,2.49,2.49,0,0,1,1.3-.51,19.05,19.05,0,0,1,4.27,0,2.42,2.42,0,0,1,1.29.51,2.12,2.12,0,0,1,.64,1.15,8.66,8.66,0,0,1,.18,2Z" transform="translate(0 0)" style="fill:#ea2b29"/><path d="M242.93,98.71h-3V80.94h2.82v1.19a2.24,2.24,0,0,1,1-1,4.29,4.29,0,0,1,1.89-.32,4.9,4.9,0,0,1,1.44.17,2,2,0,0,1,.94.61,2.68,2.68,0,0,1,.5,1.13,8.18,8.18,0,0,1,.15,1.7v14.3h-3v-14a1.39,1.39,0,0,0-.25-.95,1.26,1.26,0,0,0-.93-.27,1.61,1.61,0,0,0-1,.26,1.74,1.74,0,0,0-.48.66Z" transform="translate(0 0)" style="fill:#ea2b29"/><path d="M262.15,82.87V80a9.06,9.06,0,0,0,0-1,1.27,1.27,0,0,0-.19-.58.78.78,0,0,0-.45-.27,3.26,3.26,0,0,0-.77-.07,3.13,3.13,0,0,0-.78.07.79.79,0,0,0-.44.27,1.27,1.27,0,0,0-.19.58,9.06,9.06,0,0,0,0,1v2.32a2.78,2.78,0,0,0,.15,1,1.67,1.67,0,0,0,.74.7,12.43,12.43,0,0,0,1.35.74c.56.28,1.18.62,1.85,1a11.24,11.24,0,0,1,1.2.86,2.49,2.49,0,0,1,.68.86,3.6,3.6,0,0,1,.3,1.12,15,15,0,0,1,.07,1.64v3.76a13.94,13.94,0,0,1-.19,2.61,2.86,2.86,0,0,1-.72,1.5,2.72,2.72,0,0,1-1.49.68,14.75,14.75,0,0,1-2.46.17,13.75,13.75,0,0,1-2.37-.17,2.76,2.76,0,0,1-1.45-.66,2.81,2.81,0,0,1-.75-1.49,13.22,13.22,0,0,1-.2-2.64V89.4h3.32v4.65a8.94,8.94,0,0,0,0,1,1.2,1.2,0,0,0,.19.57.77.77,0,0,0,.43.29,3.11,3.11,0,0,0,.76.07q.94,0,1.2-.36a3.09,3.09,0,0,0,.25-1.57V90.52a6.13,6.13,0,0,0-.11-1.36,1.62,1.62,0,0,0-.69-.8c-.2-.14-.44-.29-.74-.46l-.95-.53-1-.58q-.52-.3-.93-.57a6,6,0,0,1-1-.78,2.6,2.6,0,0,1-.56-.82,3.12,3.12,0,0,1-.25-1,13.4,13.4,0,0,1-.06-1.39V80a13.9,13.9,0,0,1,.19-2.6,2.92,2.92,0,0,1,.71-1.52,2.57,2.57,0,0,1,1.45-.69,17.74,17.74,0,0,1,4.9,0,2.66,2.66,0,0,1,1.47.69,2.93,2.93,0,0,1,.72,1.52,13.77,13.77,0,0,1,.2,2.6v2.91Z" transform="translate(0 0)" style="fill:#ea2b29"/><path d="M273,83.41h-2.08V94.56a1.86,1.86,0,0,0,.3,1.24,1.6,1.6,0,0,0,1.19.33H273v2.58h-.77a8,8,0,0,1-2-.22,3.21,3.21,0,0,1-1.33-.68,2.41,2.41,0,0,1-.71-1.18,6,6,0,0,1-.21-1.69V83.41h-1.1V80.94h1.1V75.55h3v5.39H273Z" transform="translate(0 0)" style="fill:#ea2b29"/><path d="M278.94,96.51a7.69,7.69,0,0,0,1.1-.05V90.64a1.28,1.28,0,0,0-.5-.15q-.3,0-.63,0a3.9,3.9,0,0,0-.78.06.7.7,0,0,0-.43.24.87.87,0,0,0-.18.49c0,.21,0,.47,0,.79v2.78c0,.38,0,.68,0,.89a.91.91,0,0,0,.18.51.7.7,0,0,0,.44.24,5.45,5.45,0,0,0,.8.05m-.18,2.5a15.82,15.82,0,0,1-2-.11,2.46,2.46,0,0,1-1.23-.46,1.77,1.77,0,0,1-.61-1,8.08,8.08,0,0,1-.16-1.83v-4.3a3.67,3.67,0,0,1,.61-2.35,2.57,2.57,0,0,1,2.09-.74H278a11.11,11.11,0,0,1,1.43.07,2,2,0,0,1,.62.2V84.77a2.2,2.2,0,0,0-.24-1.25,1.31,1.31,0,0,0-1-.29c-.57,0-.93.1-1.08.31a2.32,2.32,0,0,0-.22,1.23v1.75h-2.76V84.41a9.82,9.82,0,0,1,.16-2,2,2,0,0,1,.61-1.14,2.35,2.35,0,0,1,1.22-.5,13.49,13.49,0,0,1,2-.12,15.49,15.49,0,0,1,2.14.12,2.46,2.46,0,0,1,1.29.52,2.12,2.12,0,0,1,.64,1.14,8.66,8.66,0,0,1,.18,2v14.3a9,9,0,0,1-1.65.22c-.74,0-1.6.08-2.57.08" transform="translate(0 0)" style="fill:#ea2b29"/><path d="M290.51,83.41h-2.07V94.56a1.87,1.87,0,0,0,.29,1.24,1.61,1.61,0,0,0,1.19.33h.56v2.58h-.77a8,8,0,0,1-2-.22,3.21,3.21,0,0,1-1.33-.68,2.49,2.49,0,0,1-.71-1.18,6,6,0,0,1-.21-1.69V83.41h-1.1V80.94h1.1V75.55h3v5.39h2.07Z" transform="translate(0 0)" style="fill:#ea2b29"/><path d="M295.2,88.45h2.55v-3.8a1.68,1.68,0,0,0-.24-1.1,2.49,2.49,0,0,0-2.09,0,1.78,1.78,0,0,0-.22,1.1Zm0,2.43v4.18a1.84,1.84,0,0,0,.22,1.11c.15.17.5.25,1.05.25a1.47,1.47,0,0,0,1-.25,1.74,1.74,0,0,0,.24-1.11v-2.4h2.73v2.58a9.65,9.65,0,0,1-.17,2,2,2,0,0,1-.6,1.14,2.39,2.39,0,0,1-1.23.51,14.13,14.13,0,0,1-2,.12,15.33,15.33,0,0,1-2.13-.12,2.47,2.47,0,0,1-1.29-.52,2,2,0,0,1-.62-1.14,9.54,9.54,0,0,1-.17-2V84.41a9.37,9.37,0,0,1,.17-2,2,2,0,0,1,.62-1.15,2.39,2.39,0,0,1,1.29-.51,15.33,15.33,0,0,1,2.13-.12,14.13,14.13,0,0,1,2,.12,2.31,2.31,0,0,1,1.23.5,2,2,0,0,1,.6,1.14,9.72,9.72,0,0,1,.17,2v6.47Z" transform="translate(0 0)" style="fill:#ea2b29"/></g></g></g></svg>